<svg width="199" height="18" viewBox="0 0 199 18" fill="none" xmlns="http://www.w3.org/2000/svg">
<g clip-path="url(#clip0_246_310)">
<path d="M60.257 7.44894L60.2017 9.00256C60.1803 9.61914 60.9494 9.89987 61.3151 9.40891L65.9974 3.13417C66.5064 2.45221 67.381 2.1843 68.174 2.46631C68.9669 2.74961 69.4872 3.51488 69.4696 4.37245L69.3602 9.40635C69.3464 10.037 70.1469 10.2972 70.4938 9.77553L74.9976 3.00726C73.9307 1.43569 72.1513 0.405067 70.1343 0.405067H64.7056C61.912 0.405067 59.5721 2.38171 58.9551 5.03902C59.7631 5.52101 60.2909 6.42857 60.2557 7.44894H60.257Z" fill="white"/>
<path d="M70.169 15.0337C69.7996 15.5888 69.2039 15.9003 68.5769 15.9003C68.3796 15.9003 68.1785 15.8695 67.9812 15.8054C67.1581 15.5375 66.6177 14.7646 66.6366 13.8826L66.7547 8.43469C66.7685 7.82196 66.0045 7.54892 65.64 8.03731L60.8986 14.3915C60.592 14.803 60.1534 15.0632 59.6797 15.144C60.7215 16.8591 62.5826 18.0013 64.7063 18.0013H70.1351C73.3987 18.0013 76.0452 15.3017 76.0452 11.9726V6.43497C76.0452 6.36063 76.0439 6.28628 76.0402 6.21193L70.169 15.035V15.0337Z" fill="white"/>
<path d="M5.19755 18L0 0.405067H3.36534L6.92923 13.002L10.2204 1.41518H13.3885L16.6558 13.002L20.2436 0.405067H23.585L18.3875 18H15.2936L11.5324 5.32744H12.0526L8.31533 18H5.19755Z" fill="white"/>
<path d="M21.9515 18L28.8807 0.405067H31.2809L38.2101 18H34.7204L30.1172 5.22617L25.4399 18H21.9502H21.9515ZM26.5043 14.5672L27.4946 11.6394H32.6921L33.7314 14.5672H26.5056H26.5043Z" fill="white"/>
<path d="M44.1005 18V11.1087L38.0371 0.405067H41.699L45.6098 7.87708L49.6688 0.405067H53.3068L47.2937 11.1087V18H44.1018H44.1005Z" fill="white"/>
<path d="M83.4046 17.5949V0H88.5519C89.8714 0 90.9521 0.197408 91.7941 0.593505C92.636 0.989603 93.2618 1.55747 93.6753 2.29711C94.0875 3.03803 94.2936 3.92124 94.2936 4.94801C94.2936 6.41191 93.8814 7.56943 93.0557 8.41931C92.2301 9.26919 91.035 9.7704 89.4667 9.92166C89.2192 9.93833 88.9226 9.9473 88.5757 9.9473H85.5811V17.5962H83.4033L83.4046 17.5949ZM85.5824 7.97707H88.3294C89.0885 7.97707 89.7482 7.8758 90.3099 7.67455C90.8704 7.47201 91.3128 7.15283 91.6345 6.71571C91.9562 6.27859 92.117 5.69791 92.117 4.97365C92.117 4.24939 91.9562 3.6482 91.6345 3.21877C91.3128 2.78935 90.8679 2.47785 90.2986 2.28429C89.7294 2.09073 89.0734 1.99459 88.3307 1.99459H85.5836V7.97707H85.5824ZM93.0557 17.5949L88.577 9.66785L90.8038 9.38969L95.5552 17.5936H93.0557V17.5949Z" fill="white"/>
<path d="M102.163 17.7975C101.206 17.7975 100.369 17.6334 99.6511 17.3052C98.9335 16.9771 98.3391 16.5182 97.8691 15.9298C97.3991 15.3414 97.0435 14.6633 96.8047 13.898C96.566 13.1327 96.4453 12.32 96.4453 11.4625C96.4453 10.6049 96.5609 9.78322 96.7922 9.00128C97.0234 8.21934 97.3652 7.52457 97.8189 6.91825C98.2725 6.31192 98.8455 5.8325 99.5392 5.47871C100.233 5.12491 101.041 4.94801 101.965 4.94801C102.888 4.94801 103.718 5.11209 104.402 5.44025C105.087 5.76841 105.648 6.21835 106.085 6.79134C106.522 7.36305 106.848 8.00271 107.063 8.7103C107.278 9.41789 107.385 10.1498 107.385 10.9061C107.385 10.9741 107.381 11.1292 107.372 11.3727C107.363 11.6163 107.343 11.8316 107.31 12.0162H98.5251C98.5741 13.2276 98.9209 14.1711 99.5643 14.844C100.208 15.517 101.082 15.8542 102.188 15.8542C102.897 15.8542 103.517 15.7362 104.044 15.5004C104.572 15.2645 105.067 14.8863 105.53 14.3646L106.99 15.6773C106.545 16.1656 106.074 16.5656 105.58 16.8758C105.085 17.1873 104.561 17.418 104.009 17.5706C103.456 17.7218 102.842 17.7975 102.166 17.7975H102.163ZM105.306 10.9305C105.339 10.7959 105.359 10.6613 105.368 10.5267C105.375 10.3921 105.38 10.2575 105.38 10.1229C105.38 9.71913 105.31 9.31534 105.17 8.91155C105.03 8.50776 104.823 8.14115 104.552 7.81299C104.281 7.48483 103.934 7.22461 103.513 7.03105C103.092 6.83749 102.593 6.74135 102.016 6.74135C101.306 6.74135 100.695 6.90927 100.185 7.2464C99.6737 7.58353 99.2778 8.02834 98.9976 8.58467C98.7161 9.13972 98.5515 9.75502 98.5025 10.4267H106.001L105.307 10.9318L105.306 10.9305Z" fill="white"/>
<path d="M113.868 17.7975C112.943 17.7975 112.139 17.6334 111.456 17.3052C110.771 16.9771 110.243 16.5182 109.872 15.9298C109.501 15.3414 109.315 14.6594 109.315 13.8852C109.315 13.1956 109.451 12.611 109.724 12.1303C109.997 11.6509 110.346 11.2766 110.776 11.0074C111.204 10.7216 111.696 10.5241 112.248 10.4139C112.801 10.3049 113.382 10.2498 113.993 10.2498H117.952V11.865H114.289C113.926 11.865 113.547 11.8983 113.151 11.9662C112.755 12.0342 112.408 12.1765 112.112 12.3957C111.897 12.5636 111.728 12.7738 111.604 13.0264C111.479 13.2789 111.418 13.5737 111.418 13.9096C111.418 14.5659 111.657 15.0876 112.135 15.4747C112.614 15.8618 113.258 16.0554 114.066 16.0554C114.742 16.0554 115.356 15.8952 115.909 15.576C116.462 15.2568 116.907 14.8146 117.245 14.2505C117.583 13.6865 117.753 13.052 117.753 12.3444L118.618 13.2532C118.519 14.1454 118.255 14.9363 117.827 15.626C117.397 16.3156 116.849 16.8502 116.181 17.2283C115.512 17.6065 114.742 17.7962 113.867 17.7962L113.868 17.7975ZM117.902 17.5949L117.754 15.0953V9.79348C117.754 8.83464 117.494 8.09372 116.975 7.572C116.455 7.05028 115.683 6.78878 114.661 6.78878C114.002 6.78878 113.382 6.92722 112.805 7.20538C112.227 7.48355 111.667 7.95015 111.123 8.60647L109.613 7.29383C110.289 6.48626 111.065 5.89275 111.939 5.5146C112.814 5.13645 113.77 4.94673 114.81 4.94673C116.409 4.94673 117.647 5.36718 118.522 6.20937C119.396 7.05156 119.834 8.24626 119.834 9.79348V17.5936H117.903L117.902 17.5949Z" fill="white"/>
<path d="M125.203 17.7975C124.46 17.7975 123.858 17.5616 123.396 17.0899C122.933 16.6194 122.703 15.8695 122.703 14.8428V0H124.782V14.4403C124.782 14.9286 124.881 15.2824 125.078 15.5004C125.276 15.7196 125.539 15.8285 125.87 15.8285C126.018 15.8285 126.183 15.8118 126.365 15.7785C126.546 15.7452 126.736 15.6939 126.934 15.6273V17.445C126.654 17.5629 126.356 17.6513 126.043 17.7103C125.729 17.7693 125.449 17.7987 125.201 17.7987L125.203 17.7975Z" fill="white"/>
<path d="M134.929 17.5949V0H146.288V1.99459H137.107V7.62455H145.447V9.61914H137.107V15.6016H146.288V17.5962H134.929V17.5949Z" fill="white"/>
<path d="M152.771 17.7975C151.945 17.7975 151.202 17.6706 150.544 17.4193C149.884 17.1668 149.319 16.8309 148.849 16.4092C148.379 15.9887 148.003 15.5427 147.723 15.0709L149.183 13.8083C149.496 14.4479 149.962 14.9735 150.582 15.3863C151.2 15.799 151.939 16.0041 152.797 16.0041C153.572 16.0041 154.191 15.8362 154.653 15.4991C155.114 15.1632 155.346 14.7082 155.346 14.1364C155.346 13.666 155.205 13.2955 154.925 13.0251C154.644 12.7559 154.272 12.5367 153.811 12.3688C153.349 12.2008 152.846 12.0496 152.302 11.9137C151.839 11.7958 151.375 11.6535 150.903 11.4843C150.433 11.3163 150.009 11.1061 149.629 10.8536C149.249 10.6011 148.944 10.2729 148.713 9.86911C148.482 9.46532 148.366 8.96924 148.366 8.37958C148.366 7.3528 148.758 6.52471 149.541 5.89275C150.324 5.26207 151.352 4.94673 152.622 4.94673C153.546 4.94673 154.392 5.14414 155.16 5.54024C155.927 5.93633 156.524 6.52856 156.954 7.31947L155.618 8.32958C155.288 7.74121 154.855 7.31562 154.319 7.05412C153.782 6.7939 153.193 6.66315 152.549 6.66315C151.906 6.66315 151.369 6.79775 150.941 7.06694C150.512 7.33613 150.298 7.70659 150.298 8.17704C150.298 8.53084 150.397 8.81669 150.594 9.03589C150.791 9.25509 151.084 9.43968 151.473 9.59094C151.86 9.7422 152.335 9.88577 152.895 10.0204C153.407 10.1383 153.926 10.2819 154.455 10.4498C154.982 10.6177 155.469 10.8369 155.915 11.1061C156.361 11.3753 156.719 11.7329 156.992 12.179C157.264 12.6251 157.4 13.202 157.4 13.9083C157.4 14.6825 157.21 15.3645 156.831 15.9529C156.451 16.5425 155.915 16.9963 155.222 17.3155C154.529 17.6347 153.713 17.7949 152.772 17.7949L152.771 17.7975Z" fill="white"/>
<path d="M158.339 6.81569V5.14927H165.812V6.81569H158.339ZM163.932 17.7975C163.354 17.7975 162.831 17.6834 162.361 17.4565C161.891 17.2296 161.525 16.863 161.261 16.3579C160.997 15.8529 160.865 15.2055 160.865 14.4146V1.81769L162.992 0.606323V13.8596C162.992 14.5505 163.099 15.0837 163.314 15.4619C163.528 15.8401 163.916 16.0298 164.476 16.0298C164.641 16.0298 164.84 16.0093 165.071 15.967C165.302 15.9247 165.55 15.8708 165.813 15.8029V17.4693C165.499 17.5872 165.183 17.6706 164.861 17.7218C164.539 17.7718 164.23 17.7975 163.934 17.7975H163.932Z" fill="white"/>
<path d="M171.925 17.7975C171 17.7975 170.197 17.6334 169.512 17.3052C168.827 16.9771 168.299 16.5182 167.929 15.9298C167.558 15.3414 167.372 14.6594 167.372 13.8852C167.372 13.1956 167.508 12.611 167.78 12.1303C168.053 11.6509 168.403 11.2766 168.832 11.0074C169.261 10.7216 169.752 10.5241 170.305 10.4139C170.858 10.3049 171.44 10.2498 172.049 10.2498H176.009V11.865H172.346C171.983 11.865 171.603 11.8983 171.207 11.9662C170.812 12.0342 170.465 12.1765 170.168 12.3957C169.953 12.5636 169.785 12.7738 169.66 13.0264C169.537 13.2789 169.474 13.5737 169.474 13.9096C169.474 14.5659 169.713 15.0876 170.192 15.4747C170.671 15.8618 171.314 16.0554 172.122 16.0554C172.798 16.0554 173.413 15.8952 173.966 15.576C174.519 15.2568 174.964 14.8146 175.303 14.2505C175.641 13.6865 175.811 13.052 175.811 12.3444L176.676 13.2532C176.577 14.1454 176.313 14.9363 175.885 15.626C175.456 16.3156 174.907 16.8502 174.238 17.2283C173.57 17.6065 172.798 17.7962 171.925 17.7962V17.7975ZM175.959 17.5949L175.811 15.0953V9.79348C175.811 8.83464 175.55 8.09372 175.031 7.572C174.512 7.05028 173.741 6.78878 172.718 6.78878C172.058 6.78878 171.439 6.92722 170.862 7.20538C170.284 7.48355 169.723 7.95015 169.179 8.60647L167.67 7.29383C168.346 6.48626 169.121 5.89275 169.996 5.5146C170.871 5.13645 171.827 4.94673 172.866 4.94673C174.466 4.94673 175.704 5.36718 176.578 6.20937C177.453 7.05156 177.89 8.24626 177.89 9.79348V17.5936H175.96L175.959 17.5949Z" fill="white"/>
<path d="M179.275 6.81569V5.14927H186.749V6.81569H179.275ZM184.869 17.7975C184.291 17.7975 183.768 17.6834 183.298 17.4565C182.828 17.2296 182.461 16.863 182.197 16.3579C181.933 15.8529 181.801 15.2055 181.801 14.4146V1.81769L183.93 0.606323V13.8596C183.93 14.5505 184.037 15.0837 184.252 15.4619C184.467 15.8401 184.854 16.0298 185.415 16.0298C185.58 16.0298 185.779 16.0093 186.01 15.967C186.241 15.9247 186.489 15.8708 186.753 15.8029V17.4693C186.438 17.5872 186.122 17.6706 185.8 17.7218C185.478 17.7718 185.169 17.7975 184.873 17.7975H184.869Z" fill="white"/>
<path d="M193.777 17.7975C192.82 17.7975 191.983 17.6334 191.265 17.3052C190.548 16.9771 189.953 16.5182 189.483 15.9298C189.013 15.3414 188.658 14.6633 188.419 13.898C188.18 13.1327 188.06 12.32 188.06 11.4625C188.06 10.6049 188.175 9.78322 188.406 9.00128C188.638 8.21934 188.979 7.52457 189.433 6.91825C189.887 6.31192 190.46 5.8325 191.153 5.47871C191.847 5.12491 192.655 4.94801 193.579 4.94801C194.502 4.94801 195.332 5.11209 196.017 5.44025C196.702 5.76841 197.262 6.21835 197.699 6.79134C198.137 7.36305 198.462 8.00271 198.677 8.7103C198.892 9.41789 198.999 10.1498 198.999 10.9061C198.999 10.9741 198.995 11.1292 198.986 11.3727C198.977 11.6163 198.957 11.8316 198.925 12.0162H190.139C190.188 13.2276 190.535 14.1711 191.179 14.844C191.822 15.517 192.697 15.8542 193.803 15.8542C194.511 15.8542 195.131 15.7362 195.659 15.5004C196.186 15.2645 196.682 14.8863 197.144 14.3646L198.604 15.6773C198.159 16.1656 197.688 16.5656 197.193 16.8758C196.698 17.1873 196.174 17.418 195.622 17.5706C195.069 17.7218 194.455 17.7975 193.779 17.7975H193.777ZM196.92 10.9305C196.953 10.7959 196.973 10.6613 196.982 10.5267C196.991 10.3921 196.994 10.2575 196.994 10.1229C196.994 9.71913 196.924 9.31534 196.785 8.91155C196.644 8.50776 196.438 8.14115 196.166 7.81299C195.894 7.48483 195.548 7.22461 195.127 7.03105C194.706 6.83749 194.207 6.74135 193.63 6.74135C192.92 6.74135 192.31 6.90927 191.799 7.2464C191.288 7.58353 190.892 8.02834 190.612 8.58467C190.332 9.13972 190.167 9.75502 190.117 10.4267H197.615L196.923 10.9318L196.92 10.9305Z" fill="white"/>
</g>
<defs>
<clipPath id="clip0_246_310">
<rect width="199" height="18" fill="white"/>
</clipPath>
</defs>
</svg>
