<svg width="597" height="183" viewBox="0 0 597 183" fill="none" xmlns="http://www.w3.org/2000/svg">
<g clip-path="url(#clip0_298_19)">
<path d="M121.811 0C121.793 3.93677 121.719 7.87355 121.783 11.8103C121.802 13.1564 121.553 13.6819 120.029 13.6819C109.218 13.6727 98.3978 13.5897 87.5868 13.8571C51.8853 14.7237 23.4959 40.6585 17.4487 71.4888C16.8763 74.4022 16.5439 77.3525 16.0823 80.2751C15.8146 81.9808 16.3962 82.3127 18.0303 82.3127C46.5952 82.2573 75.16 82.2942 103.725 82.2297C105.691 82.2297 106.31 82.6261 106.181 84.6544C105.978 87.7983 106.051 90.9606 106.162 94.1045C106.218 95.4875 105.821 95.7733 104.473 95.7733C75.6032 95.7272 46.7337 95.7548 17.8734 95.7087C16.3593 95.7087 15.9069 96.0038 16.0823 97.5803C17.8918 114.028 24.0775 128.494 35.3871 140.71C49.8819 156.365 67.8203 164.266 89.1655 164.432C99.4965 164.515 109.827 164.469 120.158 164.413C121.396 164.413 121.82 164.671 121.783 165.981C121.682 169.493 121.728 173.015 121.765 176.528C121.774 177.45 121.691 177.948 120.537 177.92C107.353 177.689 94.1509 178.528 80.9949 177.468C63.5919 176.067 48.0816 169.576 34.4454 158.799C17.6795 145.55 6.38834 128.706 1.65215 107.731C1.07974 105.196 0.775073 102.605 0.350386 100.042C0.350386 99.415 0.636588 98.7328 0.00878906 98.2257V80.7638C0.294992 79.934 0.488871 79.095 0.331921 78.2007C0.64582 76.1724 0.885861 74.1256 1.29208 72.1066C5.65898 50.4774 17.0148 33.1261 34.15 19.4718C48.5524 7.98418 65.0229 1.49358 83.5153 0.341125C85.1032 0.341125 86.7097 0.617714 88.2515 0H121.802H121.811Z" fill="white"/>
<path d="M596.576 169.272C596.714 169.244 596.862 169.207 597 169.18V183.009C596.88 182.889 596.76 182.76 596.64 182.64C596.613 178.187 596.594 173.734 596.566 169.281L596.576 169.272Z" fill="#80A293"/>
<path d="M597 18.1903C596.898 18.1903 596.797 18.2087 596.695 18.2179C596.695 13.8386 596.695 9.45008 596.695 5.07077C596.797 5.07077 596.898 5.08921 597 5.09843V18.1995V18.1903Z" fill="#80A293"/>
<path d="M83.5156 0.341125C83.5156 0.23049 83.5156 0.110635 83.5156 0H88.261C86.7192 0.617714 85.1128 0.341125 83.5249 0.341125H83.5156Z" fill="#80A293"/>
<path d="M0 78.2192C0.110788 78.2192 0.212344 78.2192 0.323132 78.21C0.480082 79.095 0.286203 79.9432 0 80.773V78.2284V78.2192Z" fill="#80A293"/>
<path d="M0 98.2349C0.627799 98.742 0.350829 99.4242 0.341597 100.051C0.230808 100.051 0.110788 100.051 0 100.051V98.2349Z" fill="#80A293"/>
<path d="M457.97 60.453C452.643 60.453 447.307 60.4345 441.971 60.4714C440.946 60.4714 440.844 59.697 440.54 59.0977C434.539 47.5086 426.525 37.616 415.853 29.9822C403.823 21.3803 390.408 16.8903 375.581 16.6783C345.327 16.245 322.994 29.7793 307.954 55.5021C300.365 68.474 298.26 82.8566 299.23 97.7279C300.171 112.092 304.631 125.23 313.346 136.754C325.449 152.778 341.098 163.344 361.206 166.488C408.485 173.873 441.269 140.47 446.79 106.846C447.159 104.578 447.436 102.292 447.806 100.024C448 98.8619 447.676 98.4746 446.43 98.5023C442.903 98.5945 439.377 98.53 435.859 98.53C416.231 98.53 396.594 98.5115 376.966 98.5668C375.489 98.5668 374.981 98.2534 375.046 96.7045C375.175 93.4315 375.175 90.1493 375.046 86.8856C374.981 85.2998 375.526 85.0417 376.984 85.0417C405.429 85.0878 433.874 85.0786 462.319 85.0786C462.559 85.0786 462.808 85.1062 463.048 85.0786C463.87 84.9864 464.202 85.2261 464.23 86.1572C464.858 112.193 457.01 135.104 438.481 153.765C419.758 172.619 396.945 181.599 370.236 180.88C328.201 179.755 294.937 148.814 286.258 114.609C278.208 82.8843 285.612 54.7645 308.268 30.9871C321.083 17.5357 336.639 8.45439 355.03 4.99704C385.838 -0.792872 412.99 6.67501 435.933 28.295C445.174 37.0075 452.219 47.3058 457.5 58.8303C457.721 59.3097 458.1 59.7431 457.989 60.4714L457.97 60.453Z" fill="white"/>
<path d="M135.3 90.8224C135.3 61.8359 135.319 32.8587 135.254 3.87224C135.254 2.16661 135.734 1.8347 137.35 1.84392C153.58 1.89924 169.811 1.76095 186.032 1.90846C209.787 2.12973 230.329 10.6026 247.538 26.8383C261.349 39.8656 270.674 55.6127 274.034 74.4115C279.306 103.96 271.569 129.831 250.815 151.589C238.536 164.469 223.672 173.181 206.26 177.33C199.686 178.897 192.993 179.69 186.235 179.709C169.884 179.745 153.534 179.69 137.183 179.764C135.494 179.764 135.272 179.266 135.272 177.763C135.319 148.777 135.309 119.8 135.309 90.8131L135.3 90.8224ZM151.17 90.7578C151.17 115.31 151.18 139.852 151.134 164.404C151.134 165.861 151.392 166.322 152.971 166.303C161.723 166.211 170.466 166.183 179.218 166.285C185.312 166.359 191.34 165.981 197.332 164.828C215.926 161.251 231.556 152.566 243.614 137.879C257.998 120.353 261.885 100.06 258.829 78.1454C254.314 45.8215 224.771 15.0187 185.025 15.323C174.39 15.406 163.763 15.3783 153.128 15.2953C151.503 15.2861 151.134 15.701 151.134 17.296C151.189 41.7833 151.17 66.2706 151.17 90.7578Z" fill="white"/>
<path d="M596.704 5.07079C596.704 9.45011 596.704 13.8386 596.704 18.218C594.525 18.3101 592.356 18.4669 590.177 18.4853C580.88 18.5499 571.574 18.3655 562.286 18.6605C546.508 19.1676 532.179 24.1277 519.651 33.7714C503.125 46.5037 493.598 63.265 491.317 84.0367C491.102 86.022 492.006 87.0147 494.031 87.0147C521.138 87.0147 548.244 87.0147 575.359 87.0147C576.818 87.0147 578.277 87.0147 579.735 86.9409C580.631 86.8948 581.009 87.07 580.991 88.0934C580.926 91.855 580.945 95.6073 580.991 99.3689C581 100.236 580.769 100.54 579.883 100.494C578.553 100.42 577.206 100.475 575.876 100.475C548.465 100.475 521.055 100.475 493.644 100.475C491.939 100.475 491.166 101.29 491.326 102.918C494.17 132.071 514.703 157.351 542.621 166.027C549.924 168.295 557.43 169.226 565.056 169.235C575.571 169.244 586.087 169.254 596.603 169.272C596.63 173.725 596.649 178.178 596.677 182.631C582.708 182.567 568.703 183.461 554.78 182.133C536.149 180.363 519.873 172.775 505.849 160.523C490.819 147.385 480.488 131.269 476.647 111.52C471.403 84.5899 477.201 60.158 494.567 38.7777C508.074 22.1547 525.301 11.2479 546.416 6.74876C551.891 5.57787 557.448 4.96938 563.034 4.92328C573.974 4.83108 584.915 4.89562 595.855 4.90484C596.15 4.90484 596.446 5.00625 596.741 5.05235L596.704 5.07079Z" fill="white"/>
<path d="M185.884 67.884C185.884 58.7934 185.921 49.7029 185.838 40.6124C185.829 39.0358 186.198 38.5011 187.851 38.5748C203.269 39.294 216.175 45.3328 226.294 56.9403C235.046 66.9805 239.219 78.8 239.201 92.1223C239.164 115.448 222.573 136.782 199.89 142.609C195.763 143.669 191.59 144.333 187.315 144.416C185.977 144.444 185.709 143.955 185.718 142.738C185.81 133.528 185.838 124.317 185.884 115.107C187.444 114.932 189.042 114.913 190.565 114.572C199.363 112.581 205.494 107.372 208.236 98.8065C210.968 90.2876 209.27 82.4049 203.287 75.6561C198.699 70.4747 192.725 68.1421 185.875 67.884H185.884Z" fill="white"/>
<path d="M185.884 67.884C192.735 68.1329 198.699 70.4655 203.297 75.6561C209.279 82.4141 210.969 90.2876 208.245 98.8065C205.494 107.381 199.373 112.581 190.574 114.572C189.051 114.913 187.454 114.941 185.894 115.107C176.975 114.812 169.986 111.05 165.416 103.343C156.322 88.0288 167.133 68.5754 184.989 67.967C185.293 67.9577 185.589 67.9116 185.894 67.884H185.884Z" fill="#DF5C2F"/>
</g>
<defs>
<clipPath id="clip0_298_19">
<rect width="597" height="183" fill="white"/>
</clipPath>
</defs>
</svg>
