<svg width="19" height="19" viewBox="0 0 19 19" fill="none" xmlns="http://www.w3.org/2000/svg">
<g clip-path="url(#clip0_246_202)">
<path fill-rule="evenodd" clip-rule="evenodd" d="M9.27776 0.642331C9.30737 0.542807 9.39909 0.474121 9.50314 0.474121C9.60719 0.474121 9.69891 0.542807 9.72852 0.642331C9.72852 0.642331 10.141 2.02503 10.5831 3.50809C11.2877 5.87086 13.1359 7.71912 15.4987 8.42363C16.9817 8.86575 18.3644 9.27825 18.3644 9.27825C18.464 9.30786 18.5326 9.39958 18.5326 9.50363C18.5326 9.60768 18.464 9.6994 18.3644 9.72901C18.3644 9.72901 16.9817 10.1415 15.4987 10.5836C13.1359 11.2881 11.2877 13.1364 10.5831 15.4992C10.141 16.9822 9.72852 18.3649 9.72852 18.3649C9.69891 18.4645 9.60719 18.5331 9.50314 18.5331C9.39909 18.5331 9.30737 18.4645 9.27776 18.3649C9.27776 18.3649 8.86526 16.9822 8.42313 15.4992C7.71863 13.1364 5.87036 11.2881 3.50759 10.5836C2.02454 10.1415 0.641842 9.72901 0.641842 9.72901C0.542312 9.6994 0.473633 9.60768 0.473633 9.50363C0.473633 9.39958 0.542312 9.30786 0.641842 9.27825C0.641842 9.27825 2.02454 8.86575 3.50759 8.42363C5.87036 7.71912 7.71863 5.87086 8.42313 3.50809C8.86526 2.02503 9.27776 0.642331 9.27776 0.642331Z" fill="#00B0AE"/>
</g>
<defs>
<clipPath id="clip0_246_202">
<rect width="19" height="19" fill="white"/>
</clipPath>
</defs>
</svg>
